<svg xmlns="http://www.w3.org/2000/svg" viewBox="0 0 1440 148" width="1440" height="148">
<rect width="1440" height="148" fill="#1A1145"/>
<rect x="1" y="12" width="2" height="12" fill="#fff" opacity="0.6"/>
<rect x="25" y="18" width="2" height="6" fill="#fff" opacity="0.28"/>
<rect x="49" y="18" width="2" height="6" fill="#fff" opacity="0.28"/>
<rect x="73" y="18" width="2" height="6" fill="#fff" opacity="0.28"/>
<rect x="97" y="18" width="2" height="6" fill="#fff" opacity="0.28"/>
<rect x="121" y="12" width="2" height="12" fill="#fff" opacity="0.6"/>
<rect x="145" y="18" width="2" height="6" fill="#fff" opacity="0.28"/>
<rect x="169" y="18" width="2" height="6" fill="#fff" opacity="0.28"/>
<rect x="193" y="18" width="2" height="6" fill="#fff" opacity="0.28"/>
<rect x="217" y="18" width="2" height="6" fill="#fff" opacity="0.28"/>
<rect x="241" y="12" width="2" height="12" fill="#fff" opacity="0.6"/>
<rect x="265" y="18" width="2" height="6" fill="#fff" opacity="0.28"/>
<rect x="289" y="18" width="2" height="6" fill="#fff" opacity="0.28"/>
<rect x="313" y="18" width="2" height="6" fill="#fff" opacity="0.28"/>
<rect x="337" y="18" width="2" height="6" fill="#fff" opacity="0.28"/>
<rect x="361" y="12" width="2" height="12" fill="#fff" opacity="0.6"/>
<rect x="385" y="18" width="2" height="6" fill="#fff" opacity="0.28"/>
<rect x="409" y="18" width="2" height="6" fill="#fff" opacity="0.28"/>
<rect x="433" y="18" width="2" height="6" fill="#fff" opacity="0.28"/>
<rect x="457" y="18" width="2" height="6" fill="#fff" opacity="0.28"/>
<rect x="481" y="12" width="2" height="12" fill="#fff" opacity="0.6"/>
<rect x="505" y="18" width="2" height="6" fill="#fff" opacity="0.28"/>
<rect x="529" y="18" width="2" height="6" fill="#fff" opacity="0.28"/>
<rect x="553" y="18" width="2" height="6" fill="#fff" opacity="0.28"/>
<rect x="577" y="18" width="2" height="6" fill="#fff" opacity="0.28"/>
<rect x="601" y="12" width="2" height="12" fill="#fff" opacity="0.6"/>
<rect x="625" y="18" width="2" height="6" fill="#fff" opacity="0.28"/>
<rect x="649" y="18" width="2" height="6" fill="#fff" opacity="0.28"/>
<rect x="673" y="18" width="2" height="6" fill="#fff" opacity="0.28"/>
<rect x="697" y="18" width="2" height="6" fill="#fff" opacity="0.28"/>
<rect x="721" y="12" width="2" height="12" fill="#fff" opacity="0.6"/>
<rect x="745" y="18" width="2" height="6" fill="#fff" opacity="0.28"/>
<rect x="769" y="18" width="2" height="6" fill="#fff" opacity="0.28"/>
<rect x="793" y="18" width="2" height="6" fill="#fff" opacity="0.28"/>
<rect x="817" y="18" width="2" height="6" fill="#fff" opacity="0.28"/>
<rect x="841" y="12" width="2" height="12" fill="#fff" opacity="0.6"/>
<rect x="865" y="18" width="2" height="6" fill="#fff" opacity="0.28"/>
<rect x="889" y="18" width="2" height="6" fill="#fff" opacity="0.28"/>
<rect x="913" y="18" width="2" height="6" fill="#fff" opacity="0.28"/>
<rect x="937" y="18" width="2" height="6" fill="#fff" opacity="0.28"/>
<rect x="961" y="12" width="2" height="12" fill="#fff" opacity="0.6"/>
<rect x="985" y="18" width="2" height="6" fill="#fff" opacity="0.28"/>
<rect x="1009" y="18" width="2" height="6" fill="#fff" opacity="0.28"/>
<rect x="1033" y="18" width="2" height="6" fill="#fff" opacity="0.28"/>
<rect x="1057" y="18" width="2" height="6" fill="#fff" opacity="0.28"/>
<rect x="1081" y="12" width="2" height="12" fill="#fff" opacity="0.6"/>
<rect x="1105" y="18" width="2" height="6" fill="#fff" opacity="0.28"/>
<rect x="1129" y="18" width="2" height="6" fill="#fff" opacity="0.28"/>
<rect x="1153" y="18" width="2" height="6" fill="#fff" opacity="0.28"/>
<rect x="1177" y="18" width="2" height="6" fill="#fff" opacity="0.28"/>
<rect x="1201" y="12" width="2" height="12" fill="#fff" opacity="0.6"/>
<rect x="1225" y="18" width="2" height="6" fill="#fff" opacity="0.28"/>
<rect x="1249" y="18" width="2" height="6" fill="#fff" opacity="0.28"/>
<rect x="1273" y="18" width="2" height="6" fill="#fff" opacity="0.28"/>
<rect x="1297" y="18" width="2" height="6" fill="#fff" opacity="0.28"/>
<rect x="1321" y="12" width="2" height="12" fill="#fff" opacity="0.6"/>
<rect x="1345" y="18" width="2" height="6" fill="#fff" opacity="0.28"/>
<rect x="1369" y="18" width="2" height="6" fill="#fff" opacity="0.28"/>
<rect x="1393" y="18" width="2" height="6" fill="#fff" opacity="0.28"/>
<rect x="1417" y="18" width="2" height="6" fill="#fff" opacity="0.28"/>
<rect x="29" y="32" width="202" height="28" rx="9" fill="#FFC933"/>
<rect x="259" y="32" width="144" height="28" rx="9" fill="#19C3E6"/>
<rect x="432" y="32" width="317" height="28" rx="9" fill="#FF2E7E"/>
<rect x="778" y="32" width="130" height="28" rx="9" fill="#FF8FB8"/>
<rect x="936" y="32" width="230" height="28" rx="9" fill="#FFC933"/>
<rect x="1195" y="32" width="216" height="28" rx="9" fill="#19C3E6"/>
<rect x="14" y="68" width="418" height="28" rx="9" fill="#5A49C7"/>
<rect x="454" y="68" width="259" height="28" rx="9" fill="#FF2E7E"/>
<rect x="734" y="68" width="346" height="28" rx="9" fill="#FFC933"/>
<rect x="1102" y="68" width="172" height="28" rx="9" fill="#19C3E6"/>
<rect x="1296" y="68" width="130" height="28" rx="9" fill="#5A49C7"/>
<rect x="1.5" y="115.5" width="5" height="5" rx="2" fill="#19C3E6" opacity="0.85"/>
<rect x="9.5" y="116.0" width="5" height="4" rx="2" fill="#19C3E6" opacity="0.85"/>
<rect x="17.5" y="113.5" width="5" height="9" rx="2" fill="#19C3E6" opacity="0.85"/>
<rect x="25.5" y="116.0" width="5" height="4" rx="2" fill="#19C3E6" opacity="0.85"/>
<rect x="33.5" y="113.0" width="5" height="10" rx="2" fill="#19C3E6" opacity="0.85"/>
<rect x="41.5" y="113.5" width="5" height="9" rx="2" fill="#19C3E6" opacity="0.85"/>
<rect x="49.5" y="115.5" width="5" height="5" rx="2" fill="#19C3E6" opacity="0.85"/>
<rect x="57.5" y="112.0" width="5" height="12" rx="2" fill="#19C3E6" opacity="0.85"/>
<rect x="65.5" y="115.5" width="5" height="5" rx="2" fill="#19C3E6" opacity="0.85"/>
<rect x="73.5" y="112.5" width="5" height="11" rx="2" fill="#19C3E6" opacity="0.85"/>
<rect x="81.5" y="115.5" width="5" height="5" rx="2" fill="#19C3E6" opacity="0.85"/>
<rect x="89.5" y="115.5" width="5" height="5" rx="2" fill="#19C3E6" opacity="0.85"/>
<rect x="97.5" y="113.5" width="5" height="9" rx="2" fill="#19C3E6" opacity="0.85"/>
<rect x="105.5" y="111.5" width="5" height="13" rx="2" fill="#19C3E6" opacity="0.85"/>
<rect x="113.5" y="116.0" width="5" height="4" rx="2" fill="#19C3E6" opacity="0.85"/>
<rect x="121.5" y="115.5" width="5" height="5" rx="2" fill="#19C3E6" opacity="0.85"/>
<rect x="129.5" y="113.0" width="5" height="10" rx="2" fill="#19C3E6" opacity="0.85"/>
<rect x="137.5" y="111.0" width="5" height="14" rx="2" fill="#19C3E6" opacity="0.85"/>
<rect x="145.5" y="113.0" width="5" height="10" rx="2" fill="#19C3E6" opacity="0.85"/>
<rect x="153.5" y="113.5" width="5" height="9" rx="2" fill="#19C3E6" opacity="0.85"/>
<rect x="161.5" y="108.5" width="5" height="19" rx="2" fill="#19C3E6" opacity="0.85"/>
<rect x="169.5" y="115.5" width="5" height="5" rx="2" fill="#19C3E6" opacity="0.85"/>
<rect x="177.5" y="108.0" width="5" height="20" rx="2" fill="#19C3E6" opacity="0.85"/>
<rect x="185.5" y="112.5" width="5" height="11" rx="2" fill="#19C3E6" opacity="0.85"/>
<rect x="193.5" y="114.0" width="5" height="8" rx="2" fill="#19C3E6" opacity="0.85"/>
<rect x="201.5" y="114.0" width="5" height="8" rx="2" fill="#19C3E6" opacity="0.85"/>
<rect x="209.5" y="112.5" width="5" height="11" rx="2" fill="#19C3E6" opacity="0.85"/>
<rect x="217.5" y="108.5" width="5" height="19" rx="2" fill="#19C3E6" opacity="0.85"/>
<rect x="225.5" y="114.5" width="5" height="7" rx="2" fill="#19C3E6" opacity="0.85"/>
<rect x="233.5" y="112.0" width="5" height="12" rx="2" fill="#19C3E6" opacity="0.85"/>
<rect x="241.5" y="112.5" width="5" height="11" rx="2" fill="#19C3E6" opacity="0.85"/>
<rect x="249.5" y="114.5" width="5" height="7" rx="2" fill="#19C3E6" opacity="0.85"/>
<rect x="257.5" y="114.0" width="5" height="8" rx="2" fill="#19C3E6" opacity="0.85"/>
<rect x="265.5" y="116.5" width="5" height="3" rx="2" fill="#19C3E6" opacity="0.85"/>
<rect x="273.5" y="116.5" width="5" height="3" rx="2" fill="#19C3E6" opacity="0.85"/>
<rect x="281.5" y="116.0" width="5" height="4" rx="2" fill="#19C3E6" opacity="0.85"/>
<rect x="289.5" y="114.0" width="5" height="8" rx="2" fill="#19C3E6" opacity="0.85"/>
<rect x="297.5" y="115.0" width="5" height="6" rx="2" fill="#19C3E6" opacity="0.85"/>
<rect x="305.5" y="115.5" width="5" height="5" rx="2" fill="#19C3E6" opacity="0.85"/>
<rect x="313.5" y="114.0" width="5" height="8" rx="2" fill="#19C3E6" opacity="0.85"/>
<rect x="321.5" y="114.5" width="5" height="7" rx="2" fill="#19C3E6" opacity="0.85"/>
<rect x="329.5" y="114.5" width="5" height="7" rx="2" fill="#19C3E6" opacity="0.85"/>
<rect x="337.5" y="111.0" width="5" height="14" rx="2" fill="#19C3E6" opacity="0.85"/>
<rect x="345.5" y="111.0" width="5" height="14" rx="2" fill="#19C3E6" opacity="0.85"/>
<rect x="353.5" y="113.5" width="5" height="9" rx="2" fill="#19C3E6" opacity="0.85"/>
<rect x="361.5" y="110.5" width="5" height="15" rx="2" fill="#19C3E6" opacity="0.85"/>
<rect x="369.5" y="110.5" width="5" height="15" rx="2" fill="#19C3E6" opacity="0.85"/>
<rect x="377.5" y="106.5" width="5" height="23" rx="2" fill="#19C3E6" opacity="0.85"/>
<rect x="385.5" y="108.0" width="5" height="20" rx="2" fill="#19C3E6" opacity="0.85"/>
<rect x="393.5" y="112.5" width="5" height="11" rx="2" fill="#19C3E6" opacity="0.85"/>
<rect x="401.5" y="106.0" width="5" height="24" rx="2" fill="#19C3E6" opacity="0.85"/>
<rect x="409.5" y="114.5" width="5" height="7" rx="2" fill="#19C3E6" opacity="0.85"/>
<rect x="417.5" y="112.5" width="5" height="11" rx="2" fill="#19C3E6" opacity="0.85"/>
<rect x="425.5" y="110.5" width="5" height="15" rx="2" fill="#19C3E6" opacity="0.85"/>
<rect x="433.5" y="115.0" width="5" height="6" rx="2" fill="#19C3E6" opacity="0.85"/>
<rect x="441.5" y="113.5" width="5" height="9" rx="2" fill="#19C3E6" opacity="0.85"/>
<rect x="449.5" y="116.5" width="5" height="3" rx="2" fill="#19C3E6" opacity="0.85"/>
<rect x="457.5" y="113.0" width="5" height="10" rx="2" fill="#19C3E6" opacity="0.85"/>
<rect x="465.5" y="112.5" width="5" height="11" rx="2" fill="#19C3E6" opacity="0.85"/>
<rect x="473.5" y="113.5" width="5" height="9" rx="2" fill="#19C3E6" opacity="0.85"/>
<rect x="481.5" y="111.0" width="5" height="14" rx="2" fill="#19C3E6" opacity="0.85"/>
<rect x="489.5" y="114.5" width="5" height="7" rx="2" fill="#19C3E6" opacity="0.85"/>
<rect x="497.5" y="111.5" width="5" height="13" rx="2" fill="#19C3E6" opacity="0.85"/>
<rect x="505.5" y="112.0" width="5" height="12" rx="2" fill="#19C3E6" opacity="0.85"/>
<rect x="513.5" y="112.0" width="5" height="12" rx="2" fill="#19C3E6" opacity="0.85"/>
<rect x="521.5" y="113.0" width="5" height="10" rx="2" fill="#19C3E6" opacity="0.85"/>
<rect x="529.5" y="110.5" width="5" height="15" rx="2" fill="#19C3E6" opacity="0.85"/>
<rect x="537.5" y="110.5" width="5" height="15" rx="2" fill="#19C3E6" opacity="0.85"/>
<rect x="545.5" y="114.0" width="5" height="8" rx="2" fill="#19C3E6" opacity="0.85"/>
<rect x="553.5" y="113.5" width="5" height="9" rx="2" fill="#19C3E6" opacity="0.85"/>
<rect x="561.5" y="116.5" width="5" height="3" rx="2" fill="#19C3E6" opacity="0.85"/>
<rect x="569.5" y="114.0" width="5" height="8" rx="2" fill="#19C3E6" opacity="0.85"/>
<rect x="577.5" y="114.0" width="5" height="8" rx="2" fill="#19C3E6" opacity="0.85"/>
<rect x="585.5" y="112.0" width="5" height="12" rx="2" fill="#19C3E6" opacity="0.85"/>
<rect x="593.5" y="113.0" width="5" height="10" rx="2" fill="#19C3E6" opacity="0.85"/>
<rect x="601.5" y="115.5" width="5" height="5" rx="2" fill="#19C3E6" opacity="0.85"/>
<rect x="609.5" y="115.0" width="5" height="6" rx="2" fill="#19C3E6" opacity="0.85"/>
<rect x="617.5" y="113.5" width="5" height="9" rx="2" fill="#19C3E6" opacity="0.85"/>
<rect x="625.5" y="116.5" width="5" height="3" rx="2" fill="#19C3E6" opacity="0.85"/>
<rect x="633.5" y="114.5" width="5" height="7" rx="2" fill="#19C3E6" opacity="0.85"/>
<rect x="641.5" y="115.5" width="5" height="5" rx="2" fill="#19C3E6" opacity="0.85"/>
<rect x="649.5" y="115.5" width="5" height="5" rx="2" fill="#19C3E6" opacity="0.85"/>
<rect x="657.5" y="115.5" width="5" height="5" rx="2" fill="#19C3E6" opacity="0.85"/>
<rect x="665.5" y="110.0" width="5" height="16" rx="2" fill="#19C3E6" opacity="0.85"/>
<rect x="673.5" y="114.5" width="5" height="7" rx="2" fill="#19C3E6" opacity="0.85"/>
<rect x="681.5" y="113.0" width="5" height="10" rx="2" fill="#19C3E6" opacity="0.85"/>
<rect x="689.5" y="111.0" width="5" height="14" rx="2" fill="#19C3E6" opacity="0.85"/>
<rect x="697.5" y="105.5" width="5" height="25" rx="2" fill="#19C3E6" opacity="0.85"/>
<rect x="705.5" y="114.0" width="5" height="8" rx="2" fill="#19C3E6" opacity="0.85"/>
<rect x="713.5" y="110.0" width="5" height="16" rx="2" fill="#19C3E6" opacity="0.85"/>
<rect x="721.5" y="109.5" width="5" height="17" rx="2" fill="#19C3E6" opacity="0.85"/>
<rect x="729.5" y="106.5" width="5" height="23" rx="2" fill="#19C3E6" opacity="0.85"/>
<rect x="737.5" y="108.0" width="5" height="20" rx="2" fill="#19C3E6" opacity="0.85"/>
<rect x="745.5" y="109.0" width="5" height="18" rx="2" fill="#19C3E6" opacity="0.85"/>
<rect x="753.5" y="114.0" width="5" height="8" rx="2" fill="#19C3E6" opacity="0.85"/>
<rect x="761.5" y="113.5" width="5" height="9" rx="2" fill="#19C3E6" opacity="0.85"/>
<rect x="769.5" y="114.5" width="5" height="7" rx="2" fill="#19C3E6" opacity="0.85"/>
<rect x="777.5" y="112.0" width="5" height="12" rx="2" fill="#19C3E6" opacity="0.85"/>
<rect x="785.5" y="112.0" width="5" height="12" rx="2" fill="#19C3E6" opacity="0.85"/>
<rect x="793.5" y="116.0" width="5" height="4" rx="2" fill="#19C3E6" opacity="0.85"/>
<rect x="801.5" y="116.0" width="5" height="4" rx="2" fill="#19C3E6" opacity="0.85"/>
<rect x="809.5" y="115.5" width="5" height="5" rx="2" fill="#19C3E6" opacity="0.85"/>
<rect x="817.5" y="115.5" width="5" height="5" rx="2" fill="#19C3E6" opacity="0.85"/>
<rect x="825.5" y="114.5" width="5" height="7" rx="2" fill="#19C3E6" opacity="0.85"/>
<rect x="833.5" y="114.0" width="5" height="8" rx="2" fill="#19C3E6" opacity="0.85"/>
<rect x="841.5" y="115.5" width="5" height="5" rx="2" fill="#19C3E6" opacity="0.85"/>
<rect x="849.5" y="116.5" width="5" height="3" rx="2" fill="#19C3E6" opacity="0.85"/>
<rect x="857.5" y="115.0" width="5" height="6" rx="2" fill="#19C3E6" opacity="0.85"/>
<rect x="865.5" y="114.5" width="5" height="7" rx="2" fill="#19C3E6" opacity="0.85"/>
<rect x="873.5" y="113.0" width="5" height="10" rx="2" fill="#19C3E6" opacity="0.85"/>
<rect x="881.5" y="110.5" width="5" height="15" rx="2" fill="#19C3E6" opacity="0.85"/>
<rect x="889.5" y="111.5" width="5" height="13" rx="2" fill="#19C3E6" opacity="0.85"/>
<rect x="897.5" y="112.5" width="5" height="11" rx="2" fill="#19C3E6" opacity="0.85"/>
<rect x="905.5" y="112.0" width="5" height="12" rx="2" fill="#19C3E6" opacity="0.85"/>
<rect x="913.5" y="111.5" width="5" height="13" rx="2" fill="#19C3E6" opacity="0.85"/>
<rect x="921.5" y="116.0" width="5" height="4" rx="2" fill="#19C3E6" opacity="0.85"/>
<rect x="929.5" y="111.0" width="5" height="14" rx="2" fill="#19C3E6" opacity="0.85"/>
<rect x="937.5" y="112.0" width="5" height="12" rx="2" fill="#19C3E6" opacity="0.85"/>
<rect x="945.5" y="112.0" width="5" height="12" rx="2" fill="#19C3E6" opacity="0.85"/>
<rect x="953.5" y="112.5" width="5" height="11" rx="2" fill="#19C3E6" opacity="0.85"/>
<rect x="961.5" y="114.5" width="5" height="7" rx="2" fill="#19C3E6" opacity="0.85"/>
<rect x="969.5" y="114.0" width="5" height="8" rx="2" fill="#19C3E6" opacity="0.85"/>
<rect x="977.5" y="115.5" width="5" height="5" rx="2" fill="#19C3E6" opacity="0.85"/>
<rect x="985.5" y="111.5" width="5" height="13" rx="2" fill="#19C3E6" opacity="0.85"/>
<rect x="993.5" y="115.5" width="5" height="5" rx="2" fill="#19C3E6" opacity="0.85"/>
<rect x="1001.5" y="115.0" width="5" height="6" rx="2" fill="#19C3E6" opacity="0.85"/>
<rect x="1009.5" y="113.5" width="5" height="9" rx="2" fill="#19C3E6" opacity="0.85"/>
<rect x="1017.5" y="113.5" width="5" height="9" rx="2" fill="#19C3E6" opacity="0.85"/>
<rect x="1025.5" y="111.5" width="5" height="13" rx="2" fill="#19C3E6" opacity="0.85"/>
<rect x="1033.5" y="114.5" width="5" height="7" rx="2" fill="#19C3E6" opacity="0.85"/>
<rect x="1041.5" y="115.0" width="5" height="6" rx="2" fill="#19C3E6" opacity="0.85"/>
<rect x="1049.5" y="114.0" width="5" height="8" rx="2" fill="#19C3E6" opacity="0.85"/>
<rect x="1057.5" y="114.5" width="5" height="7" rx="2" fill="#19C3E6" opacity="0.85"/>
<rect x="1065.5" y="113.0" width="5" height="10" rx="2" fill="#19C3E6" opacity="0.85"/>
<rect x="1073.5" y="116.0" width="5" height="4" rx="2" fill="#19C3E6" opacity="0.85"/>
<rect x="1081.5" y="111.0" width="5" height="14" rx="2" fill="#19C3E6" opacity="0.85"/>
<rect x="1089.5" y="113.0" width="5" height="10" rx="2" fill="#19C3E6" opacity="0.85"/>
<rect x="1097.5" y="116.0" width="5" height="4" rx="2" fill="#19C3E6" opacity="0.85"/>
<rect x="1105.5" y="115.5" width="5" height="5" rx="2" fill="#19C3E6" opacity="0.85"/>
<rect x="1113.5" y="115.5" width="5" height="5" rx="2" fill="#19C3E6" opacity="0.85"/>
<rect x="1121.5" y="115.5" width="5" height="5" rx="2" fill="#19C3E6" opacity="0.85"/>
<rect x="1129.5" y="116.5" width="5" height="3" rx="2" fill="#19C3E6" opacity="0.85"/>
<rect x="1137.5" y="113.5" width="5" height="9" rx="2" fill="#19C3E6" opacity="0.85"/>
<rect x="1145.5" y="112.5" width="5" height="11" rx="2" fill="#19C3E6" opacity="0.85"/>
<rect x="1153.5" y="114.5" width="5" height="7" rx="2" fill="#19C3E6" opacity="0.85"/>
<rect x="1161.5" y="114.0" width="5" height="8" rx="2" fill="#19C3E6" opacity="0.85"/>
<rect x="1169.5" y="116.0" width="5" height="4" rx="2" fill="#19C3E6" opacity="0.85"/>
<rect x="1177.5" y="115.5" width="5" height="5" rx="2" fill="#19C3E6" opacity="0.85"/>
<rect x="1185.5" y="113.5" width="5" height="9" rx="2" fill="#19C3E6" opacity="0.85"/>
<rect x="1193.5" y="113.5" width="5" height="9" rx="2" fill="#19C3E6" opacity="0.85"/>
<rect x="1201.5" y="108.5" width="5" height="19" rx="2" fill="#19C3E6" opacity="0.85"/>
<rect x="1209.5" y="114.0" width="5" height="8" rx="2" fill="#19C3E6" opacity="0.85"/>
<rect x="1217.5" y="115.0" width="5" height="6" rx="2" fill="#19C3E6" opacity="0.85"/>
<rect x="1225.5" y="106.5" width="5" height="23" rx="2" fill="#19C3E6" opacity="0.85"/>
<rect x="1233.5" y="111.0" width="5" height="14" rx="2" fill="#19C3E6" opacity="0.85"/>
<rect x="1241.5" y="114.5" width="5" height="7" rx="2" fill="#19C3E6" opacity="0.85"/>
<rect x="1249.5" y="112.0" width="5" height="12" rx="2" fill="#19C3E6" opacity="0.85"/>
<rect x="1257.5" y="116.0" width="5" height="4" rx="2" fill="#19C3E6" opacity="0.85"/>
<rect x="1265.5" y="113.0" width="5" height="10" rx="2" fill="#19C3E6" opacity="0.85"/>
<rect x="1273.5" y="111.0" width="5" height="14" rx="2" fill="#19C3E6" opacity="0.85"/>
<rect x="1281.5" y="112.0" width="5" height="12" rx="2" fill="#19C3E6" opacity="0.85"/>
<rect x="1289.5" y="113.0" width="5" height="10" rx="2" fill="#19C3E6" opacity="0.85"/>
<rect x="1297.5" y="115.0" width="5" height="6" rx="2" fill="#19C3E6" opacity="0.85"/>
<rect x="1305.5" y="114.5" width="5" height="7" rx="2" fill="#19C3E6" opacity="0.85"/>
<rect x="1313.5" y="115.0" width="5" height="6" rx="2" fill="#19C3E6" opacity="0.85"/>
<rect x="1321.5" y="111.0" width="5" height="14" rx="2" fill="#19C3E6" opacity="0.85"/>
<rect x="1329.5" y="112.0" width="5" height="12" rx="2" fill="#19C3E6" opacity="0.85"/>
<rect x="1337.5" y="109.5" width="5" height="17" rx="2" fill="#19C3E6" opacity="0.85"/>
<rect x="1345.5" y="113.0" width="5" height="10" rx="2" fill="#19C3E6" opacity="0.85"/>
<rect x="1353.5" y="114.0" width="5" height="8" rx="2" fill="#19C3E6" opacity="0.85"/>
<rect x="1361.5" y="109.5" width="5" height="17" rx="2" fill="#19C3E6" opacity="0.85"/>
<rect x="1369.5" y="109.0" width="5" height="18" rx="2" fill="#19C3E6" opacity="0.85"/>
<rect x="1377.5" y="110.5" width="5" height="15" rx="2" fill="#19C3E6" opacity="0.85"/>
<rect x="1385.5" y="111.5" width="5" height="13" rx="2" fill="#19C3E6" opacity="0.85"/>
<rect x="1393.5" y="112.0" width="5" height="12" rx="2" fill="#19C3E6" opacity="0.85"/>
<rect x="1401.5" y="113.5" width="5" height="9" rx="2" fill="#19C3E6" opacity="0.85"/>
<rect x="1409.5" y="116.0" width="5" height="4" rx="2" fill="#19C3E6" opacity="0.85"/>
<rect x="1417.5" y="115.0" width="5" height="6" rx="2" fill="#19C3E6" opacity="0.85"/>
<rect x="1425.5" y="115.5" width="5" height="5" rx="2" fill="#19C3E6" opacity="0.85"/>
<rect x="1433.5" y="116.5" width="5" height="3" rx="2" fill="#19C3E6" opacity="0.85"/>
</svg>
